<mxfile host="app.diagrams.net" modified="2021-05-19T01:43:38.170Z" agent="5.0 (Windows NT 10.0; Win64; x64) AppleWebKit/537.36 (KHTML, like Gecko) Chrome/90.0.4430.212 Safari/537.36" etag="nvIorfc-DfKqHj0eoVNA" version="14.6.13" type="github">
  <diagram id="R2lEEEUBdFMjLlhIrx00" name="Page-1">
    <mxGraphModel dx="1038" dy="528" grid="1" gridSize="10" guides="1" tooltips="1" connect="1" arrows="1" fold="1" page="1" pageScale="1" pageWidth="850" pageHeight="1100" math="0" shadow="0" extFonts="Permanent Marker^https://fonts.googleapis.com/css?family=Permanent+Marker">
      <root>
        <mxCell id="0" />
        <mxCell id="1" parent="0" />
        <mxCell id="F-uS5BF43e8n4v_Jmm8I-1" value="Boardroom Configuratation" style="shape=table;startSize=30;container=1;collapsible=1;childLayout=tableLayout;fixedRows=1;rowLines=0;fontStyle=1;align=center;resizeLast=1;" vertex="1" parent="1">
          <mxGeometry x="50" y="40" width="180" height="160" as="geometry" />
        </mxCell>
        <mxCell id="F-uS5BF43e8n4v_Jmm8I-2" value="" style="shape=partialRectangle;collapsible=0;dropTarget=0;pointerEvents=0;fillColor=none;top=0;left=0;bottom=1;right=0;points=[[0,0.5],[1,0.5]];portConstraint=eastwest;" vertex="1" parent="F-uS5BF43e8n4v_Jmm8I-1">
          <mxGeometry y="30" width="180" height="30" as="geometry" />
        </mxCell>
        <mxCell id="F-uS5BF43e8n4v_Jmm8I-3" value="PK" style="shape=partialRectangle;connectable=0;fillColor=none;top=0;left=0;bottom=0;right=0;fontStyle=1;overflow=hidden;" vertex="1" parent="F-uS5BF43e8n4v_Jmm8I-2">
          <mxGeometry width="30" height="30" as="geometry" />
        </mxCell>
        <mxCell id="F-uS5BF43e8n4v_Jmm8I-4" value="UniqueID" style="shape=partialRectangle;connectable=0;fillColor=none;top=0;left=0;bottom=0;right=0;align=left;spacingLeft=6;fontStyle=5;overflow=hidden;" vertex="1" parent="F-uS5BF43e8n4v_Jmm8I-2">
          <mxGeometry x="30" width="150" height="30" as="geometry" />
        </mxCell>
        <mxCell id="F-uS5BF43e8n4v_Jmm8I-5" value="" style="shape=partialRectangle;collapsible=0;dropTarget=0;pointerEvents=0;fillColor=none;top=0;left=0;bottom=0;right=0;points=[[0,0.5],[1,0.5]];portConstraint=eastwest;" vertex="1" parent="F-uS5BF43e8n4v_Jmm8I-1">
          <mxGeometry y="60" width="180" height="30" as="geometry" />
        </mxCell>
        <mxCell id="F-uS5BF43e8n4v_Jmm8I-6" value="" style="shape=partialRectangle;connectable=0;fillColor=none;top=0;left=0;bottom=0;right=0;editable=1;overflow=hidden;" vertex="1" parent="F-uS5BF43e8n4v_Jmm8I-5">
          <mxGeometry width="30" height="30" as="geometry" />
        </mxCell>
        <mxCell id="F-uS5BF43e8n4v_Jmm8I-7" value="Row 1" style="shape=partialRectangle;connectable=0;fillColor=none;top=0;left=0;bottom=0;right=0;align=left;spacingLeft=6;overflow=hidden;" vertex="1" parent="F-uS5BF43e8n4v_Jmm8I-5">
          <mxGeometry x="30" width="150" height="30" as="geometry" />
        </mxCell>
        <mxCell id="F-uS5BF43e8n4v_Jmm8I-8" value="" style="shape=partialRectangle;collapsible=0;dropTarget=0;pointerEvents=0;fillColor=none;top=0;left=0;bottom=0;right=0;points=[[0,0.5],[1,0.5]];portConstraint=eastwest;" vertex="1" parent="F-uS5BF43e8n4v_Jmm8I-1">
          <mxGeometry y="90" width="180" height="30" as="geometry" />
        </mxCell>
        <mxCell id="F-uS5BF43e8n4v_Jmm8I-9" value="" style="shape=partialRectangle;connectable=0;fillColor=none;top=0;left=0;bottom=0;right=0;editable=1;overflow=hidden;" vertex="1" parent="F-uS5BF43e8n4v_Jmm8I-8">
          <mxGeometry width="30" height="30" as="geometry" />
        </mxCell>
        <mxCell id="F-uS5BF43e8n4v_Jmm8I-10" value="Row 2" style="shape=partialRectangle;connectable=0;fillColor=none;top=0;left=0;bottom=0;right=0;align=left;spacingLeft=6;overflow=hidden;" vertex="1" parent="F-uS5BF43e8n4v_Jmm8I-8">
          <mxGeometry x="30" width="150" height="30" as="geometry" />
        </mxCell>
        <mxCell id="F-uS5BF43e8n4v_Jmm8I-11" value="" style="shape=partialRectangle;collapsible=0;dropTarget=0;pointerEvents=0;fillColor=none;top=0;left=0;bottom=0;right=0;points=[[0,0.5],[1,0.5]];portConstraint=eastwest;" vertex="1" parent="F-uS5BF43e8n4v_Jmm8I-1">
          <mxGeometry y="120" width="180" height="30" as="geometry" />
        </mxCell>
        <mxCell id="F-uS5BF43e8n4v_Jmm8I-12" value="" style="shape=partialRectangle;connectable=0;fillColor=none;top=0;left=0;bottom=0;right=0;editable=1;overflow=hidden;" vertex="1" parent="F-uS5BF43e8n4v_Jmm8I-11">
          <mxGeometry width="30" height="30" as="geometry" />
        </mxCell>
        <mxCell id="F-uS5BF43e8n4v_Jmm8I-13" value="Row 3" style="shape=partialRectangle;connectable=0;fillColor=none;top=0;left=0;bottom=0;right=0;align=left;spacingLeft=6;overflow=hidden;" vertex="1" parent="F-uS5BF43e8n4v_Jmm8I-11">
          <mxGeometry x="30" width="150" height="30" as="geometry" />
        </mxCell>
        <mxCell id="F-uS5BF43e8n4v_Jmm8I-78" value="Requester" style="shape=table;startSize=30;container=1;collapsible=1;childLayout=tableLayout;fixedRows=1;rowLines=0;fontStyle=1;align=center;resizeLast=1;" vertex="1" parent="1">
          <mxGeometry x="340" y="40" width="170" height="160" as="geometry" />
        </mxCell>
        <mxCell id="F-uS5BF43e8n4v_Jmm8I-79" value="" style="shape=partialRectangle;collapsible=0;dropTarget=0;pointerEvents=0;fillColor=none;top=0;left=0;bottom=1;right=0;points=[[0,0.5],[1,0.5]];portConstraint=eastwest;" vertex="1" parent="F-uS5BF43e8n4v_Jmm8I-78">
          <mxGeometry y="30" width="170" height="30" as="geometry" />
        </mxCell>
        <mxCell id="F-uS5BF43e8n4v_Jmm8I-80" value="PK" style="shape=partialRectangle;connectable=0;fillColor=none;top=0;left=0;bottom=0;right=0;fontStyle=1;overflow=hidden;" vertex="1" parent="F-uS5BF43e8n4v_Jmm8I-79">
          <mxGeometry width="30" height="30" as="geometry" />
        </mxCell>
        <mxCell id="F-uS5BF43e8n4v_Jmm8I-81" value="UniqueID" style="shape=partialRectangle;connectable=0;fillColor=none;top=0;left=0;bottom=0;right=0;align=left;spacingLeft=6;fontStyle=5;overflow=hidden;" vertex="1" parent="F-uS5BF43e8n4v_Jmm8I-79">
          <mxGeometry x="30" width="140" height="30" as="geometry" />
        </mxCell>
        <mxCell id="F-uS5BF43e8n4v_Jmm8I-82" value="" style="shape=partialRectangle;collapsible=0;dropTarget=0;pointerEvents=0;fillColor=none;top=0;left=0;bottom=0;right=0;points=[[0,0.5],[1,0.5]];portConstraint=eastwest;" vertex="1" parent="F-uS5BF43e8n4v_Jmm8I-78">
          <mxGeometry y="60" width="170" height="30" as="geometry" />
        </mxCell>
        <mxCell id="F-uS5BF43e8n4v_Jmm8I-83" value="" style="shape=partialRectangle;connectable=0;fillColor=none;top=0;left=0;bottom=0;right=0;editable=1;overflow=hidden;" vertex="1" parent="F-uS5BF43e8n4v_Jmm8I-82">
          <mxGeometry width="30" height="30" as="geometry" />
        </mxCell>
        <mxCell id="F-uS5BF43e8n4v_Jmm8I-84" value="Row 1" style="shape=partialRectangle;connectable=0;fillColor=none;top=0;left=0;bottom=0;right=0;align=left;spacingLeft=6;overflow=hidden;" vertex="1" parent="F-uS5BF43e8n4v_Jmm8I-82">
          <mxGeometry x="30" width="140" height="30" as="geometry" />
        </mxCell>
        <mxCell id="F-uS5BF43e8n4v_Jmm8I-85" value="" style="shape=partialRectangle;collapsible=0;dropTarget=0;pointerEvents=0;fillColor=none;top=0;left=0;bottom=0;right=0;points=[[0,0.5],[1,0.5]];portConstraint=eastwest;" vertex="1" parent="F-uS5BF43e8n4v_Jmm8I-78">
          <mxGeometry y="90" width="170" height="30" as="geometry" />
        </mxCell>
        <mxCell id="F-uS5BF43e8n4v_Jmm8I-86" value="" style="shape=partialRectangle;connectable=0;fillColor=none;top=0;left=0;bottom=0;right=0;editable=1;overflow=hidden;" vertex="1" parent="F-uS5BF43e8n4v_Jmm8I-85">
          <mxGeometry width="30" height="30" as="geometry" />
        </mxCell>
        <mxCell id="F-uS5BF43e8n4v_Jmm8I-87" value="Row 2" style="shape=partialRectangle;connectable=0;fillColor=none;top=0;left=0;bottom=0;right=0;align=left;spacingLeft=6;overflow=hidden;" vertex="1" parent="F-uS5BF43e8n4v_Jmm8I-85">
          <mxGeometry x="30" width="140" height="30" as="geometry" />
        </mxCell>
        <mxCell id="F-uS5BF43e8n4v_Jmm8I-88" value="" style="shape=partialRectangle;collapsible=0;dropTarget=0;pointerEvents=0;fillColor=none;top=0;left=0;bottom=0;right=0;points=[[0,0.5],[1,0.5]];portConstraint=eastwest;" vertex="1" parent="F-uS5BF43e8n4v_Jmm8I-78">
          <mxGeometry y="120" width="170" height="30" as="geometry" />
        </mxCell>
        <mxCell id="F-uS5BF43e8n4v_Jmm8I-89" value="" style="shape=partialRectangle;connectable=0;fillColor=none;top=0;left=0;bottom=0;right=0;editable=1;overflow=hidden;" vertex="1" parent="F-uS5BF43e8n4v_Jmm8I-88">
          <mxGeometry width="30" height="30" as="geometry" />
        </mxCell>
        <mxCell id="F-uS5BF43e8n4v_Jmm8I-90" value="Row 3" style="shape=partialRectangle;connectable=0;fillColor=none;top=0;left=0;bottom=0;right=0;align=left;spacingLeft=6;overflow=hidden;" vertex="1" parent="F-uS5BF43e8n4v_Jmm8I-88">
          <mxGeometry x="30" width="140" height="30" as="geometry" />
        </mxCell>
        <mxCell id="F-uS5BF43e8n4v_Jmm8I-91" value="Location" style="shape=table;startSize=30;container=1;collapsible=1;childLayout=tableLayout;fixedRows=1;rowLines=0;fontStyle=1;align=center;resizeLast=1;" vertex="1" parent="1">
          <mxGeometry x="610" y="290" width="180" height="160" as="geometry" />
        </mxCell>
        <mxCell id="F-uS5BF43e8n4v_Jmm8I-92" value="" style="shape=partialRectangle;collapsible=0;dropTarget=0;pointerEvents=0;fillColor=none;top=0;left=0;bottom=1;right=0;points=[[0,0.5],[1,0.5]];portConstraint=eastwest;" vertex="1" parent="F-uS5BF43e8n4v_Jmm8I-91">
          <mxGeometry y="30" width="180" height="25" as="geometry" />
        </mxCell>
        <mxCell id="F-uS5BF43e8n4v_Jmm8I-93" value="PK" style="shape=partialRectangle;connectable=0;fillColor=none;top=0;left=0;bottom=0;right=0;fontStyle=1;overflow=hidden;" vertex="1" parent="F-uS5BF43e8n4v_Jmm8I-92">
          <mxGeometry width="30" height="25" as="geometry" />
        </mxCell>
        <mxCell id="F-uS5BF43e8n4v_Jmm8I-94" value="UniqueID" style="shape=partialRectangle;connectable=0;fillColor=none;top=0;left=0;bottom=0;right=0;align=left;spacingLeft=6;fontStyle=5;overflow=hidden;" vertex="1" parent="F-uS5BF43e8n4v_Jmm8I-92">
          <mxGeometry x="30" width="150" height="25" as="geometry" />
        </mxCell>
        <mxCell id="F-uS5BF43e8n4v_Jmm8I-95" value="" style="shape=partialRectangle;collapsible=0;dropTarget=0;pointerEvents=0;fillColor=none;top=0;left=0;bottom=0;right=0;points=[[0,0.5],[1,0.5]];portConstraint=eastwest;" vertex="1" parent="F-uS5BF43e8n4v_Jmm8I-91">
          <mxGeometry y="55" width="180" height="30" as="geometry" />
        </mxCell>
        <mxCell id="F-uS5BF43e8n4v_Jmm8I-96" value="" style="shape=partialRectangle;connectable=0;fillColor=none;top=0;left=0;bottom=0;right=0;editable=1;overflow=hidden;" vertex="1" parent="F-uS5BF43e8n4v_Jmm8I-95">
          <mxGeometry width="30" height="30" as="geometry" />
        </mxCell>
        <mxCell id="F-uS5BF43e8n4v_Jmm8I-97" value="Row 1" style="shape=partialRectangle;connectable=0;fillColor=none;top=0;left=0;bottom=0;right=0;align=left;spacingLeft=6;overflow=hidden;" vertex="1" parent="F-uS5BF43e8n4v_Jmm8I-95">
          <mxGeometry x="30" width="150" height="30" as="geometry" />
        </mxCell>
        <mxCell id="F-uS5BF43e8n4v_Jmm8I-98" value="" style="shape=partialRectangle;collapsible=0;dropTarget=0;pointerEvents=0;fillColor=none;top=0;left=0;bottom=0;right=0;points=[[0,0.5],[1,0.5]];portConstraint=eastwest;" vertex="1" parent="F-uS5BF43e8n4v_Jmm8I-91">
          <mxGeometry y="85" width="180" height="30" as="geometry" />
        </mxCell>
        <mxCell id="F-uS5BF43e8n4v_Jmm8I-99" value="" style="shape=partialRectangle;connectable=0;fillColor=none;top=0;left=0;bottom=0;right=0;editable=1;overflow=hidden;" vertex="1" parent="F-uS5BF43e8n4v_Jmm8I-98">
          <mxGeometry width="30" height="30" as="geometry" />
        </mxCell>
        <mxCell id="F-uS5BF43e8n4v_Jmm8I-100" value="Row 2" style="shape=partialRectangle;connectable=0;fillColor=none;top=0;left=0;bottom=0;right=0;align=left;spacingLeft=6;overflow=hidden;" vertex="1" parent="F-uS5BF43e8n4v_Jmm8I-98">
          <mxGeometry x="30" width="150" height="30" as="geometry" />
        </mxCell>
        <mxCell id="F-uS5BF43e8n4v_Jmm8I-101" value="" style="shape=partialRectangle;collapsible=0;dropTarget=0;pointerEvents=0;fillColor=none;top=0;left=0;bottom=0;right=0;points=[[0,0.5],[1,0.5]];portConstraint=eastwest;" vertex="1" parent="F-uS5BF43e8n4v_Jmm8I-91">
          <mxGeometry y="115" width="180" height="30" as="geometry" />
        </mxCell>
        <mxCell id="F-uS5BF43e8n4v_Jmm8I-102" value="" style="shape=partialRectangle;connectable=0;fillColor=none;top=0;left=0;bottom=0;right=0;editable=1;overflow=hidden;" vertex="1" parent="F-uS5BF43e8n4v_Jmm8I-101">
          <mxGeometry width="30" height="30" as="geometry" />
        </mxCell>
        <mxCell id="F-uS5BF43e8n4v_Jmm8I-103" value="Row 3" style="shape=partialRectangle;connectable=0;fillColor=none;top=0;left=0;bottom=0;right=0;align=left;spacingLeft=6;overflow=hidden;" vertex="1" parent="F-uS5BF43e8n4v_Jmm8I-101">
          <mxGeometry x="30" width="150" height="30" as="geometry" />
        </mxCell>
        <mxCell id="F-uS5BF43e8n4v_Jmm8I-104" value="EventRequest" style="shape=table;startSize=40;container=1;collapsible=1;childLayout=tableLayout;fixedRows=1;rowLines=0;fontStyle=1;align=center;resizeLast=1;" vertex="1" parent="1">
          <mxGeometry x="335" y="270" width="180" height="160" as="geometry" />
        </mxCell>
        <mxCell id="F-uS5BF43e8n4v_Jmm8I-105" value="" style="shape=partialRectangle;collapsible=0;dropTarget=0;pointerEvents=0;fillColor=none;top=0;left=0;bottom=1;right=0;points=[[0,0.5],[1,0.5]];portConstraint=eastwest;" vertex="1" parent="F-uS5BF43e8n4v_Jmm8I-104">
          <mxGeometry y="40" width="180" height="30" as="geometry" />
        </mxCell>
        <mxCell id="F-uS5BF43e8n4v_Jmm8I-106" value="PK" style="shape=partialRectangle;connectable=0;fillColor=none;top=0;left=0;bottom=0;right=0;fontStyle=1;overflow=hidden;" vertex="1" parent="F-uS5BF43e8n4v_Jmm8I-105">
          <mxGeometry width="30" height="30" as="geometry" />
        </mxCell>
        <mxCell id="F-uS5BF43e8n4v_Jmm8I-107" value="UniqueID" style="shape=partialRectangle;connectable=0;fillColor=none;top=0;left=0;bottom=0;right=0;align=left;spacingLeft=6;fontStyle=5;overflow=hidden;" vertex="1" parent="F-uS5BF43e8n4v_Jmm8I-105">
          <mxGeometry x="30" width="150" height="30" as="geometry" />
        </mxCell>
        <mxCell id="F-uS5BF43e8n4v_Jmm8I-108" value="" style="shape=partialRectangle;collapsible=0;dropTarget=0;pointerEvents=0;fillColor=none;top=0;left=0;bottom=0;right=0;points=[[0,0.5],[1,0.5]];portConstraint=eastwest;" vertex="1" parent="F-uS5BF43e8n4v_Jmm8I-104">
          <mxGeometry y="70" width="180" height="30" as="geometry" />
        </mxCell>
        <mxCell id="F-uS5BF43e8n4v_Jmm8I-109" value="" style="shape=partialRectangle;connectable=0;fillColor=none;top=0;left=0;bottom=0;right=0;editable=1;overflow=hidden;" vertex="1" parent="F-uS5BF43e8n4v_Jmm8I-108">
          <mxGeometry width="30" height="30" as="geometry" />
        </mxCell>
        <mxCell id="F-uS5BF43e8n4v_Jmm8I-110" value="Row 1" style="shape=partialRectangle;connectable=0;fillColor=none;top=0;left=0;bottom=0;right=0;align=left;spacingLeft=6;overflow=hidden;" vertex="1" parent="F-uS5BF43e8n4v_Jmm8I-108">
          <mxGeometry x="30" width="150" height="30" as="geometry" />
        </mxCell>
        <mxCell id="F-uS5BF43e8n4v_Jmm8I-111" value="" style="shape=partialRectangle;collapsible=0;dropTarget=0;pointerEvents=0;fillColor=none;top=0;left=0;bottom=0;right=0;points=[[0,0.5],[1,0.5]];portConstraint=eastwest;" vertex="1" parent="F-uS5BF43e8n4v_Jmm8I-104">
          <mxGeometry y="100" width="180" height="30" as="geometry" />
        </mxCell>
        <mxCell id="F-uS5BF43e8n4v_Jmm8I-112" value="" style="shape=partialRectangle;connectable=0;fillColor=none;top=0;left=0;bottom=0;right=0;editable=1;overflow=hidden;" vertex="1" parent="F-uS5BF43e8n4v_Jmm8I-111">
          <mxGeometry width="30" height="30" as="geometry" />
        </mxCell>
        <mxCell id="F-uS5BF43e8n4v_Jmm8I-113" value="Row 2" style="shape=partialRectangle;connectable=0;fillColor=none;top=0;left=0;bottom=0;right=0;align=left;spacingLeft=6;overflow=hidden;" vertex="1" parent="F-uS5BF43e8n4v_Jmm8I-111">
          <mxGeometry x="30" width="150" height="30" as="geometry" />
        </mxCell>
        <mxCell id="F-uS5BF43e8n4v_Jmm8I-114" value="" style="shape=partialRectangle;collapsible=0;dropTarget=0;pointerEvents=0;fillColor=none;top=0;left=0;bottom=0;right=0;points=[[0,0.5],[1,0.5]];portConstraint=eastwest;" vertex="1" parent="F-uS5BF43e8n4v_Jmm8I-104">
          <mxGeometry y="130" width="180" height="30" as="geometry" />
        </mxCell>
        <mxCell id="F-uS5BF43e8n4v_Jmm8I-115" value="" style="shape=partialRectangle;connectable=0;fillColor=none;top=0;left=0;bottom=0;right=0;editable=1;overflow=hidden;" vertex="1" parent="F-uS5BF43e8n4v_Jmm8I-114">
          <mxGeometry width="30" height="30" as="geometry" />
        </mxCell>
        <mxCell id="F-uS5BF43e8n4v_Jmm8I-116" value="Row 3" style="shape=partialRectangle;connectable=0;fillColor=none;top=0;left=0;bottom=0;right=0;align=left;spacingLeft=6;overflow=hidden;" vertex="1" parent="F-uS5BF43e8n4v_Jmm8I-114">
          <mxGeometry x="30" width="150" height="30" as="geometry" />
        </mxCell>
        <mxCell id="F-uS5BF43e8n4v_Jmm8I-117" value="File" style="shape=table;startSize=30;container=1;collapsible=1;childLayout=tableLayout;fixedRows=1;rowLines=0;fontStyle=1;align=center;resizeLast=1;" vertex="1" parent="1">
          <mxGeometry x="90" y="270" width="180" height="160" as="geometry" />
        </mxCell>
        <mxCell id="F-uS5BF43e8n4v_Jmm8I-118" value="" style="shape=partialRectangle;collapsible=0;dropTarget=0;pointerEvents=0;fillColor=none;top=0;left=0;bottom=1;right=0;points=[[0,0.5],[1,0.5]];portConstraint=eastwest;" vertex="1" parent="F-uS5BF43e8n4v_Jmm8I-117">
          <mxGeometry y="30" width="180" height="30" as="geometry" />
        </mxCell>
        <mxCell id="F-uS5BF43e8n4v_Jmm8I-119" value="PK" style="shape=partialRectangle;connectable=0;fillColor=none;top=0;left=0;bottom=0;right=0;fontStyle=1;overflow=hidden;" vertex="1" parent="F-uS5BF43e8n4v_Jmm8I-118">
          <mxGeometry width="30" height="30" as="geometry" />
        </mxCell>
        <mxCell id="F-uS5BF43e8n4v_Jmm8I-120" value="UniqueID" style="shape=partialRectangle;connectable=0;fillColor=none;top=0;left=0;bottom=0;right=0;align=left;spacingLeft=6;fontStyle=5;overflow=hidden;" vertex="1" parent="F-uS5BF43e8n4v_Jmm8I-118">
          <mxGeometry x="30" width="150" height="30" as="geometry" />
        </mxCell>
        <mxCell id="F-uS5BF43e8n4v_Jmm8I-121" value="" style="shape=partialRectangle;collapsible=0;dropTarget=0;pointerEvents=0;fillColor=none;top=0;left=0;bottom=0;right=0;points=[[0,0.5],[1,0.5]];portConstraint=eastwest;" vertex="1" parent="F-uS5BF43e8n4v_Jmm8I-117">
          <mxGeometry y="60" width="180" height="30" as="geometry" />
        </mxCell>
        <mxCell id="F-uS5BF43e8n4v_Jmm8I-122" value="" style="shape=partialRectangle;connectable=0;fillColor=none;top=0;left=0;bottom=0;right=0;editable=1;overflow=hidden;" vertex="1" parent="F-uS5BF43e8n4v_Jmm8I-121">
          <mxGeometry width="30" height="30" as="geometry" />
        </mxCell>
        <mxCell id="F-uS5BF43e8n4v_Jmm8I-123" value="Row 1" style="shape=partialRectangle;connectable=0;fillColor=none;top=0;left=0;bottom=0;right=0;align=left;spacingLeft=6;overflow=hidden;" vertex="1" parent="F-uS5BF43e8n4v_Jmm8I-121">
          <mxGeometry x="30" width="150" height="30" as="geometry" />
        </mxCell>
        <mxCell id="F-uS5BF43e8n4v_Jmm8I-124" value="" style="shape=partialRectangle;collapsible=0;dropTarget=0;pointerEvents=0;fillColor=none;top=0;left=0;bottom=0;right=0;points=[[0,0.5],[1,0.5]];portConstraint=eastwest;" vertex="1" parent="F-uS5BF43e8n4v_Jmm8I-117">
          <mxGeometry y="90" width="180" height="30" as="geometry" />
        </mxCell>
        <mxCell id="F-uS5BF43e8n4v_Jmm8I-125" value="" style="shape=partialRectangle;connectable=0;fillColor=none;top=0;left=0;bottom=0;right=0;editable=1;overflow=hidden;" vertex="1" parent="F-uS5BF43e8n4v_Jmm8I-124">
          <mxGeometry width="30" height="30" as="geometry" />
        </mxCell>
        <mxCell id="F-uS5BF43e8n4v_Jmm8I-126" value="Row 2" style="shape=partialRectangle;connectable=0;fillColor=none;top=0;left=0;bottom=0;right=0;align=left;spacingLeft=6;overflow=hidden;" vertex="1" parent="F-uS5BF43e8n4v_Jmm8I-124">
          <mxGeometry x="30" width="150" height="30" as="geometry" />
        </mxCell>
        <mxCell id="F-uS5BF43e8n4v_Jmm8I-127" value="" style="shape=partialRectangle;collapsible=0;dropTarget=0;pointerEvents=0;fillColor=none;top=0;left=0;bottom=0;right=0;points=[[0,0.5],[1,0.5]];portConstraint=eastwest;" vertex="1" parent="F-uS5BF43e8n4v_Jmm8I-117">
          <mxGeometry y="120" width="180" height="30" as="geometry" />
        </mxCell>
        <mxCell id="F-uS5BF43e8n4v_Jmm8I-128" value="" style="shape=partialRectangle;connectable=0;fillColor=none;top=0;left=0;bottom=0;right=0;editable=1;overflow=hidden;" vertex="1" parent="F-uS5BF43e8n4v_Jmm8I-127">
          <mxGeometry width="30" height="30" as="geometry" />
        </mxCell>
        <mxCell id="F-uS5BF43e8n4v_Jmm8I-129" value="Row 3" style="shape=partialRectangle;connectable=0;fillColor=none;top=0;left=0;bottom=0;right=0;align=left;spacingLeft=6;overflow=hidden;" vertex="1" parent="F-uS5BF43e8n4v_Jmm8I-127">
          <mxGeometry x="30" width="150" height="30" as="geometry" />
        </mxCell>
        <mxCell id="F-uS5BF43e8n4v_Jmm8I-130" value="" style="edgeStyle=entityRelationEdgeStyle;fontSize=12;html=1;endArrow=ERzeroToMany;startArrow=ERmandOne;exitX=-0.007;exitY=-0.047;exitDx=0;exitDy=0;exitPerimeter=0;" edge="1" parent="1" source="F-uS5BF43e8n4v_Jmm8I-111" target="F-uS5BF43e8n4v_Jmm8I-124">
          <mxGeometry width="100" height="100" relative="1" as="geometry">
            <mxPoint x="370" y="320" as="sourcePoint" />
            <mxPoint x="470" y="220" as="targetPoint" />
          </mxGeometry>
        </mxCell>
        <mxCell id="F-uS5BF43e8n4v_Jmm8I-131" value="" style="edgeStyle=entityRelationEdgeStyle;fontSize=12;html=1;endArrow=ERzeroToMany;startArrow=ERmandOne;exitX=1;exitY=0.5;exitDx=0;exitDy=0;" edge="1" parent="1" source="F-uS5BF43e8n4v_Jmm8I-8" target="F-uS5BF43e8n4v_Jmm8I-104">
          <mxGeometry width="100" height="100" relative="1" as="geometry">
            <mxPoint x="278.74" y="250.00000000000003" as="sourcePoint" />
            <mxPoint x="330" y="300" as="targetPoint" />
          </mxGeometry>
        </mxCell>
        <mxCell id="F-uS5BF43e8n4v_Jmm8I-133" value="" style="edgeStyle=entityRelationEdgeStyle;fontSize=12;html=1;endArrow=ERzeroToMany;startArrow=ERmandOne;" edge="1" parent="1" source="F-uS5BF43e8n4v_Jmm8I-85" target="F-uS5BF43e8n4v_Jmm8I-104">
          <mxGeometry width="100" height="100" relative="1" as="geometry">
            <mxPoint x="540" y="120" as="sourcePoint" />
            <mxPoint x="470" y="220" as="targetPoint" />
          </mxGeometry>
        </mxCell>
        <mxCell id="F-uS5BF43e8n4v_Jmm8I-134" value="Building" style="shape=table;startSize=30;container=1;collapsible=1;childLayout=tableLayout;fixedRows=1;rowLines=0;fontStyle=1;align=center;resizeLast=1;" vertex="1" parent="1">
          <mxGeometry x="610" y="50" width="180" height="160" as="geometry" />
        </mxCell>
        <mxCell id="F-uS5BF43e8n4v_Jmm8I-135" value="" style="shape=partialRectangle;collapsible=0;dropTarget=0;pointerEvents=0;fillColor=none;top=0;left=0;bottom=1;right=0;points=[[0,0.5],[1,0.5]];portConstraint=eastwest;" vertex="1" parent="F-uS5BF43e8n4v_Jmm8I-134">
          <mxGeometry y="30" width="180" height="30" as="geometry" />
        </mxCell>
        <mxCell id="F-uS5BF43e8n4v_Jmm8I-136" value="PK" style="shape=partialRectangle;connectable=0;fillColor=none;top=0;left=0;bottom=0;right=0;fontStyle=1;overflow=hidden;" vertex="1" parent="F-uS5BF43e8n4v_Jmm8I-135">
          <mxGeometry width="30" height="30" as="geometry" />
        </mxCell>
        <mxCell id="F-uS5BF43e8n4v_Jmm8I-137" value="UniqueID" style="shape=partialRectangle;connectable=0;fillColor=none;top=0;left=0;bottom=0;right=0;align=left;spacingLeft=6;fontStyle=5;overflow=hidden;" vertex="1" parent="F-uS5BF43e8n4v_Jmm8I-135">
          <mxGeometry x="30" width="150" height="30" as="geometry" />
        </mxCell>
        <mxCell id="F-uS5BF43e8n4v_Jmm8I-138" value="" style="shape=partialRectangle;collapsible=0;dropTarget=0;pointerEvents=0;fillColor=none;top=0;left=0;bottom=0;right=0;points=[[0,0.5],[1,0.5]];portConstraint=eastwest;" vertex="1" parent="F-uS5BF43e8n4v_Jmm8I-134">
          <mxGeometry y="60" width="180" height="30" as="geometry" />
        </mxCell>
        <mxCell id="F-uS5BF43e8n4v_Jmm8I-139" value="" style="shape=partialRectangle;connectable=0;fillColor=none;top=0;left=0;bottom=0;right=0;editable=1;overflow=hidden;" vertex="1" parent="F-uS5BF43e8n4v_Jmm8I-138">
          <mxGeometry width="30" height="30" as="geometry" />
        </mxCell>
        <mxCell id="F-uS5BF43e8n4v_Jmm8I-140" value="Row 1" style="shape=partialRectangle;connectable=0;fillColor=none;top=0;left=0;bottom=0;right=0;align=left;spacingLeft=6;overflow=hidden;" vertex="1" parent="F-uS5BF43e8n4v_Jmm8I-138">
          <mxGeometry x="30" width="150" height="30" as="geometry" />
        </mxCell>
        <mxCell id="F-uS5BF43e8n4v_Jmm8I-141" value="" style="shape=partialRectangle;collapsible=0;dropTarget=0;pointerEvents=0;fillColor=none;top=0;left=0;bottom=0;right=0;points=[[0,0.5],[1,0.5]];portConstraint=eastwest;" vertex="1" parent="F-uS5BF43e8n4v_Jmm8I-134">
          <mxGeometry y="90" width="180" height="30" as="geometry" />
        </mxCell>
        <mxCell id="F-uS5BF43e8n4v_Jmm8I-142" value="" style="shape=partialRectangle;connectable=0;fillColor=none;top=0;left=0;bottom=0;right=0;editable=1;overflow=hidden;" vertex="1" parent="F-uS5BF43e8n4v_Jmm8I-141">
          <mxGeometry width="30" height="30" as="geometry" />
        </mxCell>
        <mxCell id="F-uS5BF43e8n4v_Jmm8I-143" value="Row 2" style="shape=partialRectangle;connectable=0;fillColor=none;top=0;left=0;bottom=0;right=0;align=left;spacingLeft=6;overflow=hidden;" vertex="1" parent="F-uS5BF43e8n4v_Jmm8I-141">
          <mxGeometry x="30" width="150" height="30" as="geometry" />
        </mxCell>
        <mxCell id="F-uS5BF43e8n4v_Jmm8I-144" value="" style="shape=partialRectangle;collapsible=0;dropTarget=0;pointerEvents=0;fillColor=none;top=0;left=0;bottom=0;right=0;points=[[0,0.5],[1,0.5]];portConstraint=eastwest;" vertex="1" parent="F-uS5BF43e8n4v_Jmm8I-134">
          <mxGeometry y="120" width="180" height="30" as="geometry" />
        </mxCell>
        <mxCell id="F-uS5BF43e8n4v_Jmm8I-145" value="" style="shape=partialRectangle;connectable=0;fillColor=none;top=0;left=0;bottom=0;right=0;editable=1;overflow=hidden;" vertex="1" parent="F-uS5BF43e8n4v_Jmm8I-144">
          <mxGeometry width="30" height="30" as="geometry" />
        </mxCell>
        <mxCell id="F-uS5BF43e8n4v_Jmm8I-146" value="Row 3" style="shape=partialRectangle;connectable=0;fillColor=none;top=0;left=0;bottom=0;right=0;align=left;spacingLeft=6;overflow=hidden;" vertex="1" parent="F-uS5BF43e8n4v_Jmm8I-144">
          <mxGeometry x="30" width="150" height="30" as="geometry" />
        </mxCell>
        <mxCell id="F-uS5BF43e8n4v_Jmm8I-148" value="" style="edgeStyle=entityRelationEdgeStyle;fontSize=12;html=1;endArrow=ERzeroToMany;startArrow=ERmandOne;entryX=1;entryY=0.5;entryDx=0;entryDy=0;" edge="1" parent="1" target="F-uS5BF43e8n4v_Jmm8I-92">
          <mxGeometry width="100" height="100" relative="1" as="geometry">
            <mxPoint x="790" y="145" as="sourcePoint" />
            <mxPoint x="640" y="360" as="targetPoint" />
          </mxGeometry>
        </mxCell>
        <mxCell id="F-uS5BF43e8n4v_Jmm8I-149" value="" style="edgeStyle=entityRelationEdgeStyle;fontSize=12;html=1;endArrow=ERzeroToMany;startArrow=ERmandOne;exitX=0;exitY=0.5;exitDx=0;exitDy=0;entryX=1;entryY=0.5;entryDx=0;entryDy=0;" edge="1" parent="1" source="F-uS5BF43e8n4v_Jmm8I-98" target="F-uS5BF43e8n4v_Jmm8I-114">
          <mxGeometry width="100" height="100" relative="1" as="geometry">
            <mxPoint x="690" y="480" as="sourcePoint" />
            <mxPoint x="570" y="390" as="targetPoint" />
          </mxGeometry>
        </mxCell>
      </root>
    </mxGraphModel>
  </diagram>
</mxfile>
